<svg width="200" height="200" viewBox="0 0 200 200" fill="none" xmlns="http://www.w3.org/2000/svg">
  <!-- Light Mode Version -->
  <defs>
    <linearGradient id="lightGradient" x1="0%" y1="0%" x2="100%" y2="100%">
      <stop offset="0%" style="stop-color:hsl(164, 100%, 33%);stop-opacity:1" />
      <stop offset="100%" style="stop-color:hsl(280, 60%, 50%);stop-opacity:1" />
    </linearGradient>
    
    <filter id="lightGlow">
      <feGaussianBlur stdDeviation="4" result="coloredBlur"/>
      <feMerge>
        <feMergeNode in="coloredBlur"/>
        <feMergeNode in="SourceGraphic"/>
      </feMerge>
    </filter>
  </defs>
  
  <!-- Background Circle (subtle) -->
  <circle cx="100" cy="100" r="90" fill="hsl(164, 20%, 98%)" opacity="0.5"/>
  
  <!-- Main WhatsApp Bubble Shape -->
  <path d="M100 30 C140 30 170 55 170 87 C170 110 155 128 135 135 L120 170 L110 140 C50 135 30 115 30 87 C30 55 60 30 100 30 Z" 
        fill="url(#lightGradient)" 
        filter="url(#lightGlow)"/>
  
  <!-- AI Sparkle Effects -->
  <g transform="translate(140, 50)">
    <path d="M0,-8 L2,-2 L8,0 L2,2 L0,8 L-2,2 L-8,0 L-2,-2 Z" 
          fill="white" 
          opacity="0.95"/>
  </g>
  
  <g transform="translate(55, 110)">
    <path d="M0,-5 L1.5,-1.5 L5,0 L1.5,1.5 L0,5 L-1.5,1.5 L-5,0 L-1.5,-1.5 Z" 
          fill="white" 
          opacity="0.8"/>
  </g>
  
  <!-- Check Mark -->
  <g transform="translate(85, 85)">
    <path d="M0,5 L5,10 L15,0" 
          stroke="white" 
          stroke-width="4" 
          stroke-linecap="round" 
          stroke-linejoin="round" 
          fill="none"/>
  </g>
</svg>